<svg width="36" height="27" viewBox="0 0 36 27" fill="none" xmlns="http://www.w3.org/2000/svg">
<path d="M25.2 23.4V27H0V23.4C0 23.4 0 16.2 12.6 16.2C25.2 16.2 25.2 23.4 25.2 23.4ZM18.9 6.30007C18.9 5.05405 18.5305 3.83602 17.8383 2.79999C17.146 1.76397 16.1621 0.956483 15.0109 0.479652C13.8597 0.00282178 12.593 -0.121939 11.3709 0.121147C10.1488 0.364233 9.0263 0.964248 8.14523 1.84532C7.26416 2.72638 6.66414 3.84893 6.42105 5.07101C6.17797 6.29308 6.30273 7.5598 6.77956 8.71097C7.25639 9.86214 8.06388 10.8461 9.09991 11.5383C10.1359 12.2306 11.354 12.6001 12.6 12.6001C14.2709 12.6001 15.8733 11.9363 17.0548 10.7548C18.2363 9.57335 18.9 7.97093 18.9 6.30007ZM25.092 16.2C26.1985 17.0564 27.104 18.1448 27.7446 19.3887C28.3852 20.6327 28.7455 22.0019 28.8 23.4V27H36V23.4C36 23.4 36 16.866 25.092 16.2ZM23.4 9.46419e-05C22.161 -0.00680422 20.9493 0.363614 19.926 1.06209C21.0194 2.58981 21.6073 4.42139 21.6073 6.30007C21.6073 8.17875 21.0194 10.0103 19.926 11.5381C20.9493 12.2365 22.161 12.6069 23.4 12.6001C25.0709 12.6001 26.6733 11.9363 27.8548 10.7548C29.0363 9.57335 29.7 7.97093 29.7 6.30007C29.7 4.62921 29.0363 3.02679 27.8548 1.84532C26.6733 0.663841 25.0709 9.46419e-05 23.4 9.46419e-05Z" fill="#20CA41"/>
</svg>
