<svg width="31" height="31" viewBox="0 0 31 31" fill="none" xmlns="http://www.w3.org/2000/svg">
<path d="M26.875 20.375H20.375C20.375 21.6679 19.8614 22.9079 18.9471 23.8221C18.0329 24.7364 16.7929 25.25 15.5 25.25C14.2071 25.25 12.9671 24.7364 12.0529 23.8221C11.1386 22.9079 10.625 21.6679 10.625 20.375H4.125V4.125H26.875M26.875 0.875H4.125C2.32125 0.875 0.875 2.3375 0.875 4.125V26.875C0.875 27.737 1.21741 28.5636 1.8269 29.1731C2.4364 29.7826 3.26305 30.125 4.125 30.125H26.875C27.737 30.125 28.5636 29.7826 29.1731 29.1731C29.7826 28.5636 30.125 27.737 30.125 26.875V4.125C30.125 3.26305 29.7826 2.4364 29.1731 1.8269C28.5636 1.21741 27.737 0.875 26.875 0.875Z" fill="#0081FF"/>
</svg>
