<svg width="45" height="45" viewBox="0 0 45 45" fill="none" xmlns="http://www.w3.org/2000/svg">
<path d="M37.5 30V18.75H41.25V30C41.25 30.9946 40.8549 31.9484 40.1516 32.6516C39.4484 33.3549 38.4946 33.75 37.5 33.75H15C12.9187 33.75 11.25 32.0625 11.25 30V7.5C11.25 5.41875 12.9187 3.75 15 3.75H30V7.5H15V30H37.5ZM20.4562 13.275L26.25 19.0688L38.6063 6.7125L41.25 9.375L26.25 24.375L17.8125 15.9375L20.4562 13.275ZM30 37.5V41.25H7.5C6.50544 41.25 5.55161 40.8549 4.84835 40.1516C4.14509 39.4484 3.75 38.4946 3.75 37.5V13.125H7.5V37.5H30Z" fill="#7B51E4"/>
</svg>
