<svg width="19" height="24" viewBox="0 0 19 24" fill="none" xmlns="http://www.w3.org/2000/svg">
<path d="M18.9995 7C18.9995 5.62 17.8795 4.5 16.4995 4.5C16.3295 4.5 16.1595 4.5 15.9995 4.55V4C15.9995 2.62 14.8795 1.5 13.4995 1.5C13.2695 1.5 13.0395 1.53 12.8295 1.59C12.4595 0.66 11.5595 0 10.4995 0C9.26949 0 8.24949 0.89 8.03948 2.06C7.86948 2 7.68949 2 7.49949 2C6.11948 2 4.99949 3.12 4.99949 4.5V10.39C4.65948 10.08 4.23949 9.85 3.77948 9.73L2.99948 9.5C2.17948 9.29 1.30948 9.61 0.819485 10.35C0.439485 10.92 0.419485 11.66 0.669485 12.3L3.22948 18.73C4.49948 21.91 7.56948 24 10.9995 24C15.4195 24 18.9995 20.42 18.9995 16V7ZM16.9995 16C16.9995 19.31 14.3095 22 10.9995 22C8.38949 22 6.04949 20.41 5.08949 18L2.49948 11.45L2.99948 11.59C3.49948 11.71 3.84948 12.05 3.99948 12.5L4.99949 15H6.99949V4.5C6.99949 4.22 7.21948 4 7.49949 4C7.77949 4 7.99949 4.22 7.99949 4.5V12H9.99949V2.5C9.99949 2.22 10.2195 2 10.4995 2C10.7795 2 10.9995 2.22 10.9995 2.5V12H12.9995V4C12.9995 3.72 13.2195 3.5 13.4995 3.5C13.7795 3.5 13.9995 3.72 13.9995 4V12H15.9995V7C15.9995 6.72 16.2195 6.5 16.4995 6.5C16.7795 6.5 16.9995 6.72 16.9995 7V16Z" fill="#B0C7DD"/>
</svg>
