<svg width="32" height="32" viewBox="0 0 32 32" fill="none" xmlns="http://www.w3.org/2000/svg">
<path d="M16 28.8222C13.0296 28.8222 10.1808 27.6504 8.0804 25.5646C5.98 23.4788 4.8 20.6499 4.8 17.7001C4.8 14.7503 5.98 11.9214 8.0804 9.83556C10.1808 7.74975 13.0296 6.57795 16 6.57795C18.9704 6.57795 21.8192 7.74975 23.9196 9.83556C26.02 11.9214 27.2 14.7503 27.2 17.7001C27.2 20.6499 26.02 23.4788 23.9196 25.5646C21.8192 27.6504 18.9704 28.8222 16 28.8222ZM16 3.4002C12.1809 3.4002 8.51819 4.90679 5.81766 7.58854C3.11714 10.2703 1.6 13.9075 1.6 17.7001C1.6 21.4927 3.11714 25.1299 5.81766 27.8117C8.51819 30.4934 12.1809 32 16 32C19.8191 32 23.4818 30.4934 26.1823 27.8117C28.8829 25.1299 30.4 21.4927 30.4 17.7001C30.4 13.9075 28.8829 10.2703 26.1823 7.58854C23.4818 4.90679 19.8191 3.4002 16 3.4002ZM16.8 9.75571H14.4V19.289L22 23.8173L23.2 21.863L16.8 18.0973V9.75571ZM9.408 2.43098L7.36 0L0 6.11718L2.064 8.54816L9.408 2.43098ZM32 6.13307L24.64 0L22.576 2.43098L29.936 8.56405L32 6.13307Z" fill="#0281FF"/>
</svg>
